<svg width="256" height="256" viewBox="0 0 256 256" fill="none" xmlns="http://www.w3.org/2000/svg">
  <defs>
    <radialGradient id="faceGradient" cx="50%" cy="40%" r="70%">
      <stop offset="0%" stop-color="#FFE6C9" />
      <stop offset="100%" stop-color="#FFCE9E" />
    </radialGradient>
    <linearGradient id="bgGradient" x1="0%" y1="0%" x2="100%" y2="100%">
      <stop offset="0%" stop-color="#1CF5A7" />
      <stop offset="100%" stop-color="#0EB97A" />
    </linearGradient>
  </defs>
  <rect x="0" y="0" width="256" height="256" rx="128" fill="url(#bgGradient)" />
  <circle cx="128" cy="128" r="86" fill="url(#faceGradient)" />
  <path d="M68 124C68 92 96 70 128 70C160 70 188 92 188 124" fill="#3A2E2A" />
  <path d="M82 122C84 116 94 112 104 112" stroke="#3A2E2A" stroke-width="10" stroke-linecap="round" />
  <path d="M174 122C172 116 162 112 152 112" stroke="#3A2E2A" stroke-width="10" stroke-linecap="round" />
  <circle cx="104" cy="140" r="11" fill="#2F231F" />
  <circle cx="152" cy="140" r="11" fill="#2F231F" />
  <path d="M112 174C122 186 134 186 144 174" stroke="#C45F3B" stroke-width="8" stroke-linecap="round" />
  <path d="M92 102C100 88 116 80 128 80C140 80 156 88 164 102" stroke="#3A2E2A" stroke-width="12" stroke-linecap="round" />
</svg>
