<svg width="256" height="256" viewBox="0 0 256 256" fill="none" xmlns="http://www.w3.org/2000/svg">
  <defs>
    <radialGradient id="faceGradient4" cx="50%" cy="45%" r="70%">
      <stop offset="0%" stop-color="#FFE2D0" />
      <stop offset="100%" stop-color="#FFB68C" />
    </radialGradient>
    <linearGradient id="bgGradient4" x1="0%" y1="0%" x2="100%" y2="100%">
      <stop offset="0%" stop-color="#A985FF" />
      <stop offset="100%" stop-color="#5F4BFF" />
    </linearGradient>
  </defs>
  <rect x="0" y="0" width="256" height="256" rx="128" fill="url(#bgGradient4)" />
  <circle cx="128" cy="130" r="82" fill="url(#faceGradient4)" />
  <path d="M58 128C62 90 94 62 134 62C166 62 194 86 202 120" fill="#231B20" />
  <path d="M86 136C90 130 100 126 110 126" stroke="#231B20" stroke-width="10" stroke-linecap="round" />
  <path d="M170 136C166 130 156 126 146 126" stroke="#231B20" stroke-width="10" stroke-linecap="round" />
  <circle cx="108" cy="150" r="10" fill="#2F231F" />
  <circle cx="148" cy="150" r="10" fill="#2F231F" />
  <path d="M114 182C126 194 138 194 150 182" stroke="#C45F3B" stroke-width="8" stroke-linecap="round" />
  <path d="M78 120C92 102 110 92 128 92C146 92 164 102 178 120" stroke="#231B20" stroke-width="12" stroke-linecap="round" />
  <path d="M92 184C104 198 116 204 128 204C140 204 152 198 164 184" stroke="#6B5D75" stroke-width="6" stroke-linecap="round" />
</svg>
