<?xml version="1.0" encoding="UTF-8"?>
<svg id="Layer_1" data-name="Layer 1" xmlns="http://www.w3.org/2000/svg" viewBox="0 0 1041.587182 1000">
  <defs>
    <style>
      .cls-1 {
        fill: #00d76b;
      }
    </style>
  </defs>
  <polygon class="cls-1" points="963.414598 472.195172 925.243946 426.829244 807.134231 286.585378 140.243863 286.585378 140.243863 140.243866 680.366063 140.243866 562.256102 0 0 0 0 527.804828 38.170652 573.170756 140.243863 694.390344 156.280366 713.414622 519.878196 713.414622 401.768481 573.170756 226.890311 573.170756 140.243863 470.305027 140.243863 426.829244 739.390212 426.829244 823.170735 526.280478 823.170735 573.170756 504.329337 573.170756 624.207347 713.414622 749.329316 859.756134 286.890282 859.756134 404.999955 1000 932.926866 1000 932.926866 849.451234 823.170735 719.146472 818.353741 713.414622 963.414598 713.414622 963.414598 472.195172"/>
</svg>