<?xml version="1.0" encoding="UTF-8"?>
<svg id="Layer_1" xmlns="http://www.w3.org/2000/svg" version="1.1" viewBox="0 0 12 12">
  <!-- Generator: Adobe Illustrator 30.0.0, SVG Export Plug-In . SVG Version: 2.1.1 Build 123)  -->
  <defs>
    <style>
      .st0 {
        fill: #eaeaea;
        fill-rule: evenodd;
      }
    </style>
  </defs>
  <path class="st0" d="M4.6,7.6l4-2.9c.2-.1.5,0,.6.1.5,1.2.3,2.6-.7,3.6-1,1-2.3,1.2-3.6.7l-1.4.6c1.9,1.3,4.3,1,5.8-.5,1.2-1.2,1.5-2.8,1.2-4.2h0c-.5-2.1.1-3,1.4-4.7,0,0,0,0,0-.1l-1.7,1.7h0s-5.7,5.7-5.7,5.7M3.8,8.4c-1.4-1.3-1.2-3.4,0-4.6.9-.9,2.3-1.2,3.6-.7l1.4-.6c-.3-.2-.6-.4-.9-.5-1.7-.7-3.6-.3-4.9,1-1.3,1.3-1.7,3.2-1,4.9.5,1.2-.3,2.1-1.2,3C.5,11.1.2,11.4,0,11.8l3.8-3.4"/>
</svg>